<svg width="862" height="288" viewBox="0 0 862 288" fill="none" xmlns="http://www.w3.org/2000/svg">
<path d="M55.8658 28.806C61.9321 26.2933 68.4339 25 75 25L225 25V175C225 181.566 223.707 188.068 221.194 194.134C218.681 200.2 214.998 205.712 210.355 210.355C205.712 214.998 200.2 218.681 194.134 221.194C188.068 223.707 181.566 225 175 225L112.5 225L111.75 225V225.022C105.196 225.41 100 230.848 100 237.5C100 241.535 101.912 245.123 104.879 247.409L144.97 287.5H180.325L142.825 250L175 250C175.682 250 176.364 249.991 177.044 249.972L214.572 287.5H249.923L249.925 287.498L205.808 243.38C214.078 239.654 221.61 234.456 228.033 228.033C234.997 221.069 240.522 212.801 244.291 203.701C247.549 195.836 249.44 187.482 249.893 179H250V8.34662e-07L75 0C65.1509 0 55.3982 1.93993 46.2987 5.70904C37.1993 9.47814 28.9314 15.0026 21.967 21.967C15.0026 28.9314 9.47813 37.1993 5.70903 46.2988C1.93993 55.3982 -1.48717e-06 65.1509 0 75V287.5H25V75C25 68.4339 26.2933 61.9321 28.806 55.8658C31.3188 49.7996 35.0017 44.2876 39.6447 39.6447C44.2876 35.0017 49.7995 31.3188 55.8658 28.806Z" fill="#00B4D2"/>
<path d="M200 74.25C200 88.0571 188.807 99.25 175 99.25C172.984 99.25 171.023 99.0113 169.145 98.5606L142.705 125H187.25V125.002C187.289 125.002 187.327 125.001 187.366 125.001C187.386 125 187.407 125 187.428 125C187.452 125 187.476 125 187.5 125C194.404 125 200 130.596 200 137.5C200 144.404 194.404 150 187.5 150C187.416 150 187.333 149.999 187.25 149.998V150H117.705L93.5514 174.154C95.6504 174.714 97.8181 175 100 175H176V175.039C182.436 175.549 187.5 180.933 187.5 187.5C187.5 194.067 182.436 199.451 176 199.961V200H100C93.4339 200 86.9321 198.707 80.8658 196.194C80.0652 195.862 79.2742 195.51 78.4935 195.138C76.1861 200.983 75 207.212 75 213.5V287.5H50V213.5C50 203.651 51.9399 193.898 55.709 184.799C56.6285 182.579 57.6524 180.409 58.7762 178.295C56.8096 175.43 55.1423 172.36 53.806 169.134C51.2933 163.068 50 156.566 50 150V75C50 68.0964 55.5964 62.5 62.5 62.5C69.4036 62.5 75 68.0964 75 75V150C75 152.197 75.2896 154.38 75.8577 156.492L100 132.35V62.5H100.022C100.007 62.2519 100 62.0018 100 61.75C100 54.8464 105.596 49.25 112.5 49.25C119.404 49.25 125 54.8464 125 61.75C125 62.0018 124.993 62.2519 124.978 62.5H125V107.35L151.017 81.3326C150.355 79.087 150 76.71 150 74.25C150 60.4429 161.193 49.25 175 49.25C188.807 49.25 200 60.4429 200 74.25Z" fill="#00B4D2"/>
<path d="M314 252.575V161.274H332.809V236.489H377.187V252.575H314Z" fill="black"/>
<path d="M420.96 254.346C413.612 254.346 407.049 252.771 401.269 249.623C395.587 246.377 391.13 241.851 387.897 236.047C384.664 230.242 383.048 223.552 383.048 215.977C383.048 208.008 384.762 201.17 388.191 195.464C391.717 189.66 396.371 185.233 402.151 182.183C408.029 179.133 414.494 177.608 421.548 177.608C428.895 177.608 435.459 179.231 441.238 182.478C447.018 185.626 451.574 190.053 454.904 195.759C458.333 201.465 460.048 208.205 460.048 215.977C460.048 223.355 458.382 229.947 455.051 235.751C451.721 241.556 447.116 246.131 441.238 249.476C435.459 252.722 428.699 254.346 420.96 254.346ZM421.254 237.965C425.172 237.965 428.552 236.981 431.393 235.014C434.332 232.948 436.634 230.242 438.299 226.897C439.965 223.454 440.798 219.715 440.798 215.682C440.798 211.058 439.867 207.122 438.006 203.876C436.242 200.629 433.891 198.17 430.952 196.497C428.013 194.825 424.78 193.988 421.254 193.988C417.433 193.988 414.053 194.923 411.114 196.792C408.273 198.662 406.02 201.269 404.355 204.614C402.787 207.86 402.004 211.648 402.004 215.977C402.004 220.306 402.836 224.142 404.502 227.487C406.265 230.832 408.616 233.439 411.555 235.309C414.494 237.08 417.727 237.965 421.254 237.965Z" fill="black"/>
<path d="M501.672 286.812C495.011 286.812 489.035 286.074 483.745 284.598C478.455 283.122 474.242 280.712 471.108 277.367C468.071 274.12 466.552 269.841 466.552 264.528C466.552 261.085 467.287 258.084 468.756 255.526C470.226 253.067 472.479 250.902 475.516 249.033C472.969 247.557 471.059 245.688 469.785 243.425C468.512 241.162 467.875 238.555 467.875 235.604C467.875 229.111 470.912 224.093 476.985 220.551C474.83 218.289 473.165 215.731 471.989 212.878C470.814 209.926 470.226 206.876 470.226 203.728C470.226 198.416 471.499 193.841 474.046 190.004C476.594 186.069 480.12 183.019 484.627 180.855C489.133 178.69 494.276 177.608 500.056 177.608C504.268 177.608 508.138 178.198 511.665 179.379H537.821V193.546H527.682C528.27 195.218 528.76 196.891 529.151 198.563C529.641 200.236 529.886 201.957 529.886 203.728C529.886 208.844 528.564 213.37 525.919 217.305C523.274 221.24 519.698 224.339 515.191 226.602C510.783 228.766 505.738 229.849 500.056 229.849C497.607 229.849 495.354 229.652 493.296 229.258C491.239 228.766 489.231 228.029 487.272 227.045C485.116 228.127 484.039 229.849 484.039 232.21C484.039 236.539 487.615 238.703 494.766 238.703H508.138C514.016 238.703 519.012 239.539 523.127 241.212C527.339 242.786 530.523 245.294 532.678 248.738C534.833 252.181 535.911 256.559 535.911 261.872C535.911 266.988 534.392 271.415 531.356 275.153C528.319 278.892 524.204 281.745 519.012 283.713C513.82 285.779 508.04 286.812 501.672 286.812ZM501.672 272.054C506.375 272.054 510.342 271.267 513.575 269.693C516.906 268.217 518.571 265.955 518.571 262.905C518.571 257.1 514.555 254.198 506.522 254.198H495.941C492.023 254.198 488.986 254.936 486.831 256.412C484.774 257.887 483.745 260.052 483.745 262.905C483.745 265.168 484.578 266.938 486.243 268.217C487.908 269.595 490.113 270.579 492.856 271.169C495.599 271.759 498.538 272.054 501.672 272.054ZM499.909 215.091C503.632 215.091 506.669 214.058 509.02 211.992C511.469 209.828 512.693 207.073 512.693 203.728C512.693 200.482 511.469 197.776 509.02 195.612C506.669 193.447 503.632 192.365 499.909 192.365C496.186 192.365 493.15 193.447 490.798 195.612C488.545 197.776 487.419 200.482 487.419 203.728C487.419 207.073 488.496 209.828 490.651 211.992C492.905 214.058 495.99 215.091 499.909 215.091Z" fill="black"/>
<path d="M557.122 169.934C553.791 169.934 550.901 168.754 548.452 166.392C546.101 163.933 544.925 161.031 544.925 157.686C544.925 154.242 546.101 151.34 548.452 148.979C550.901 146.618 553.791 145.437 557.122 145.437C560.55 145.437 563.44 146.618 565.792 148.979C568.143 151.34 569.318 154.242 569.318 157.686C569.318 161.031 568.143 163.933 565.792 166.392C563.44 168.754 560.55 169.934 557.122 169.934ZM547.717 252.575V179.379H566.526V252.575H547.717Z" fill="black"/>
<path d="M608.93 252.575C601.092 252.575 595.166 250.656 591.149 246.819C587.23 242.983 585.271 237.227 585.271 229.553V195.169H575.867V179.379H585.271V161.523H604.08V179.379H620.685V195.169H604.08V229.701C604.08 232.456 604.815 234.325 606.284 235.309C607.754 236.293 609.664 236.784 612.015 236.784H620.685V252.575H608.93Z" fill="black"/>
<path d="M664.753 254.346C657.112 254.346 650.499 252.673 644.915 249.328C639.429 245.983 635.168 241.408 632.131 235.604C629.094 229.799 627.576 223.257 627.576 215.977C627.576 208.205 629.143 201.465 632.278 195.759C635.413 190.053 639.772 185.626 645.356 182.478C650.94 179.231 657.406 177.608 664.753 177.608C672.002 177.608 678.321 179.182 683.709 182.33C689.195 185.478 693.457 189.807 696.494 195.317C699.628 200.826 701.196 207.172 701.196 214.353C701.196 215.632 701.147 216.911 701.049 218.19C700.951 219.371 700.804 220.502 700.608 221.585H646.532C646.826 225.028 647.707 228.078 649.177 230.734C650.744 233.292 652.801 235.309 655.349 236.784C657.994 238.162 660.981 238.85 664.312 238.85C667.741 238.85 670.68 238.113 673.129 236.637C675.676 235.161 677.684 232.898 679.154 229.849H699.286C697.914 234.177 695.71 238.211 692.673 241.95C689.636 245.688 685.766 248.689 681.064 250.951C676.46 253.214 671.023 254.346 664.753 254.346ZM646.679 209.041H681.799C681.701 204.122 679.889 200.236 676.362 197.383C672.933 194.53 668.868 193.103 664.165 193.103C660.149 193.103 656.426 194.382 652.997 196.94C649.569 199.399 647.462 203.433 646.679 209.041Z" fill="black"/>
<path d="M745.388 254.346C738.04 254.346 731.624 252.722 726.138 249.476C720.652 246.131 716.39 241.605 713.353 235.899C710.316 230.095 708.798 223.454 708.798 215.977C708.798 208.598 710.267 202.007 713.206 196.202C716.243 190.398 720.505 185.872 725.991 182.625C731.477 179.28 737.942 177.608 745.388 177.608C754.204 177.608 761.65 179.822 767.723 184.249C773.895 188.676 778.059 195.218 780.214 203.876H760.082C759.201 201.023 757.486 198.612 754.939 196.645C752.49 194.579 749.257 193.546 745.241 193.546C741.224 193.546 737.942 194.579 735.395 196.645C732.848 198.711 730.938 201.465 729.664 204.909C728.489 208.254 727.901 211.943 727.901 215.977C727.901 220.01 728.489 223.749 729.664 227.192C730.938 230.537 732.848 233.243 735.395 235.309C737.942 237.276 741.224 238.26 745.241 238.26C749.061 238.26 752.196 237.424 754.645 235.751C757.094 233.981 758.907 231.423 760.082 228.078H780.214C778.94 233.587 776.638 238.309 773.307 242.245C770.075 246.18 766.058 249.181 761.258 251.247C756.556 253.313 751.266 254.346 745.388 254.346Z" fill="black"/>
<path d="M791.08 252.575V149.274H809.742V187.938C812.289 184.495 815.669 181.937 819.881 180.264C824.192 178.493 828.502 177.608 832.813 177.608C841.238 177.608 848.144 180.363 853.532 185.872C858.92 191.283 861.614 199.154 861.614 209.484V252.575H842.952V211.992C842.952 206.483 841.531 202.056 838.691 198.711C835.948 195.267 831.882 193.546 826.494 193.546C821.106 193.546 816.943 195.267 814.004 198.711C811.163 202.056 809.742 206.483 809.742 211.992V252.575H791.08Z" fill="black"/>
<path d="M314 138.301V35H349.708C356.859 35 363.031 36.1806 368.223 38.5417C373.513 40.8045 377.628 44.1495 380.567 48.5767C383.506 53.0038 384.975 58.4148 384.975 64.8096C384.975 72.1883 383.016 78.0912 379.097 82.5183C375.179 86.9455 369.84 89.9953 363.08 91.6678L391.735 138.301H369.546L344.271 94.7668H332.809V138.301H314ZM332.809 78.6814H349.267C353.676 78.6814 357.055 78.0912 359.406 76.9106C361.856 75.6316 363.521 73.9591 364.403 71.8931C365.382 69.8271 365.872 67.4659 365.872 64.8096C365.872 62.1533 365.382 59.7922 364.403 57.7262C363.521 55.6601 361.856 54.0368 359.406 52.8563C357.055 51.6757 353.676 51.0854 349.267 51.0854H332.809V78.6814Z" fill="black"/>
<path d="M428.996 140.072C421.649 140.072 415.085 138.497 409.305 135.349C403.623 132.103 399.166 127.577 395.933 121.773C392.7 115.968 391.084 109.278 391.084 101.703C391.084 93.7338 392.798 86.8963 396.227 81.1902C399.754 75.3857 404.407 70.9585 410.187 67.9086C416.065 64.8588 422.53 63.3339 429.584 63.3339C436.931 63.3339 443.495 64.9572 449.275 68.2038C455.054 71.352 459.61 75.7792 462.941 81.4853C466.369 87.1915 468.084 93.9306 468.084 101.703C468.084 109.081 466.418 115.673 463.087 121.477C459.757 127.282 455.152 131.857 449.275 135.202C443.495 138.448 436.735 140.072 428.996 140.072ZM429.29 123.691C433.208 123.691 436.588 122.707 439.429 120.74C442.368 118.674 444.67 115.968 446.336 112.623C448.001 109.18 448.834 105.441 448.834 101.408C448.834 96.7837 447.903 92.8484 446.042 89.6018C444.278 86.3552 441.927 83.8957 438.988 82.2232C436.049 80.5507 432.817 79.7144 429.29 79.7144C425.469 79.7144 422.089 80.6491 419.151 82.5183C416.31 84.3876 414.056 86.9947 412.391 90.3397C410.824 93.5863 410.04 97.3739 410.04 101.703C410.04 106.032 410.873 109.868 412.538 113.213C414.301 116.558 416.652 119.165 419.591 121.035C422.53 122.806 425.763 123.691 429.29 123.691Z" fill="black"/>
<path d="M514.523 140.072C507.176 140.072 500.612 138.497 494.833 135.349C489.151 132.103 484.693 127.577 481.46 121.773C478.228 115.968 476.611 109.278 476.611 101.703C476.611 93.7338 478.326 86.8963 481.754 81.1902C485.281 75.3857 489.934 70.9585 495.714 67.9086C501.592 64.8588 508.058 63.3339 515.111 63.3339C522.458 63.3339 529.022 64.9572 534.802 68.2038C540.582 71.352 545.137 75.7792 548.468 81.4853C551.897 87.1915 553.611 93.9306 553.611 101.703C553.611 109.081 551.946 115.673 548.615 121.477C545.284 127.282 540.68 131.857 534.802 135.202C529.022 138.448 522.262 140.072 514.523 140.072ZM514.817 123.691C518.736 123.691 522.116 122.707 524.957 120.74C527.895 118.674 530.198 115.968 531.863 112.623C533.528 109.18 534.361 105.441 534.361 101.408C534.361 96.7837 533.43 92.8484 531.569 89.6018C529.806 86.3552 527.455 83.8957 524.516 82.2232C521.577 80.5507 518.344 79.7144 514.817 79.7144C510.997 79.7144 507.617 80.6491 504.678 82.5183C501.837 84.3876 499.584 86.9947 497.918 90.3397C496.351 93.5863 495.567 97.3739 495.567 101.703C495.567 106.032 496.4 109.868 498.065 113.213C499.829 116.558 502.18 119.165 505.119 121.035C508.058 122.806 511.291 123.691 514.817 123.691Z" fill="black"/>
<path d="M590.274 138.301C582.437 138.301 576.51 136.382 572.494 132.545C568.575 128.708 566.616 122.953 566.616 115.279V80.895H557.211V65.1048H566.616V47.2485H585.425V65.1048H602.03V80.895H585.425V115.427C585.425 118.182 586.16 120.051 587.629 121.035C589.099 122.019 591.009 122.51 593.36 122.51H602.03V138.301H590.274Z" fill="black"/>
</svg>
